<?xml version="1.0" encoding="utf-8"?>
<svg viewBox="0 0 48 48" xmlns="http://www.w3.org/2000/svg">
  <defs>
    <style>.cls-1{fill:#f4adcc;}.cls-2{fill:#a9dffa;}.cls-3{fill:#88d6f9;}.cls-4{fill:#f4a979;}.cls-5{fill:#f6d1b0;}.cls-6{fill:#f8bb8e;}.cls-7{fill:#f4624c;}.cls-8{fill:#f9e6d8;}.cls-9{fill:#e38f60;}.cls-10{fill:#ef90ba;}.cls-11{fill:#b4784f;}.cls-12{fill:#d44f4f;}.cls-13{fill:#eb76aa;}.cls-14{fill:#45c24e;}.cls-15{fill:#8bd845;}.cls-16{fill:#f6fafd;}.cls-17{fill:#f0f8fe;}.cls-18{fill:none;stroke:#24283b;stroke-linejoin:round;stroke-width:2px;}</style>
  </defs>
  <g data-name="26-ice cream" id="_26-ice_cream">
    <path class="cls-1" d="M43.83,17s3.25,2,0,4S33,23,33,23c0-2.92,6.92-4.24,10.66-6.3Z"/>
    <path class="cls-1" d="M40,9s3-1,3,2a1.314,1.314,0,0,1-.38.89C40.61,14.29,31,15.84,31,23c-2,0-2-1-2-1V21a10.851,10.851,0,0,1-.01-3c.22-1.66.96-3.49,3.01-4,4-1,6-2,6-4l-.07-.96C38.56,9,39.26,9,40,9Z"/>
    <path class="cls-2" d="M31,23c0-7.16,9.61-8.71,11.62-11.11l.13.11S46,12,46,14c0,1.08-.95,1.94-2.34,2.7C39.92,18.76,33,20.08,33,23Z"/>
    <path class="cls-3" d="M37.93,9.04,38,10c0,2-2,3-6,4-2.05.51-2.79,2.34-3.01,4-.55-.02-.99-1.35-.99-3,0-4,4-5,4-5s4-9,5-9h1l2,8C39.26,9,38.56,9,37.93,9.04Z"/>
    <path class="cls-4" d="M9,23l5.97,23.88A3.906,3.906,0,0,1,14,47a3.85,3.85,0,0,1-3.73-2.91L5,23Z"/>
    <path class="cls-5" d="M18,43l-.27,1.09a3.865,3.865,0,0,1-1.37,2.1,3.941,3.941,0,0,1-1.39.69L9,23h4Z"/>
    <polygon class="cls-4" points="23 23 18 43 13 23 23 23"/>
    <path class="cls-4" d="M43.16,21.6l.84.86L41,34.73a12.679,12.679,0,0,0-4.96-10.26l4.6-3.13A1.963,1.963,0,0,1,43.16,21.6Z"/>
    <path class="cls-6" d="M36.04,24.47A12.679,12.679,0,0,1,41,34.73L38,47H36L30,22.46A10.165,10.165,0,0,1,36.04,24.47Z"/>
    <path class="cls-1" d="M23.5,18a2.5,2.5,0,0,1,0,5H19v2a2,2,0,0,1-4,0V23H4.5a2.5,2.5,0,0,1,0-5h.09A7.9,7.9,0,0,1,4,15c0-.35.02-.7.05-1.04.02-.11.04-.23.06-.34.03-.22.06-.45.1-.66.03-.14.07-.27.1-.4.05-.19.1-.39.16-.58.04-.13.09-.26.14-.4.07-.17.13-.35.2-.53.01-.01.01-.03.02-.05h.01a9.992,9.992,0,0,1,18.32,0h.01c.01.02.01.04.02.05.07.18.13.36.2.53.05.14.1.27.15.4.05.19.1.39.15.58.03.13.07.26.1.4.04.22.07.44.1.66.02.12.04.23.06.34.03.34.05.69.05,1.04a7.9,7.9,0,0,1-.59,3Z"/>
    <circle class="cls-7" cx="14" cy="4" r="3"/>
    <path class="cls-8" d="M23.36,11.46A2.79,2.79,0,0,1,21,13a3,3,0,0,1-3-3v1a2.006,2.006,0,0,1-2,2,2.015,2.015,0,0,1-2-2v1a2.006,2.006,0,0,1-2,2,2.015,2.015,0,0,1-2-2V10a3,3,0,0,1-3,3,2.79,2.79,0,0,1-2.36-1.54A4.889,4.889,0,0,1,4,9c0-2.76,3.13-5,7-5a3,3,0,0,0,6,0c3.87,0,7,2.24,7,5A4.889,4.889,0,0,1,23.36,11.46Z"/>
    <path class="cls-9" d="M38.9,22.522A42.388,42.388,0,0,1,33.23,23a10.465,10.465,0,0,1,2.81,1.473Z"/>
    <path class="cls-9" d="M43,21.462v-.038l-.03.012Z"/>
    <path class="cls-1" d="M43.83,17s3.25,2,0,4S33,23,33,23c0-2.92,6.92-4.24,10.66-6.3Z" style="fill: rgb(254, 195, 203);"/>
    <path class="cls-1" d="M40,9s3-1,3,2a1.314,1.314,0,0,1-.38.89C40.61,14.29,31,15.84,31,23c-2,0-2-1-2-1V21a10.851,10.851,0,0,1-.01-3c.22-1.66.96-3.49,3.01-4,4-1,6-2,6-4l-.07-.96C38.56,9,39.26,9,40,9Z" style="fill: rgb(254, 195, 203);"/>
    <path class="cls-2" d="M31,23c0-7.16,9.61-8.71,11.62-11.11l.13.11S46,12,46,14c0,1.08-.95,1.94-2.34,2.7C39.92,18.76,33,20.08,33,23Z" style="fill: rgb(47, 166, 251);"/>
    <path class="cls-3" d="M37.93,9.04,38,10c0,2-2,3-6,4-2.05.51-2.79,2.34-3.01,4-.55-.02-.99-1.35-.99-3,0-4,4-5,4-5s4-9,5-9h1l2,8C39.26,9,38.56,9,37.93,9.04Z" style="fill: rgb(43, 149, 224);"/>
    <path class="cls-4" d="M43.16,21.6l.84.86L41,34.73a12.679,12.679,0,0,0-4.96-10.26l4.6-3.13A1.963,1.963,0,0,1,43.16,21.6Z"/>
    <path class="cls-4" d="M36.04,24.47A12.679,12.679,0,0,1,41,34.73L38,47H36L30,22.46A10.165,10.165,0,0,1,36.04,24.47Z"/>
    <path class="cls-4" d="M9,23l5.97,23.88A3.906,3.906,0,0,1,14,47a3.85,3.85,0,0,1-3.73-2.91L5,23Z"/>
    <path class="cls-5" d="M18,43l-.27,1.09a3.865,3.865,0,0,1-1.37,2.1,3.941,3.941,0,0,1-1.39.69L9,23h4Z"/>
    <polygon class="cls-4" points="23 23 18 43 13 23 23 23"/>
    <polygon class="cls-9" points="9 23 5 23 5.75 26 9.75 26 9 23"/>
    <polygon class="cls-6" points="12 26 13.75 26 13 23 9 23 9.75 26 12 26"/>
    <path class="cls-9" d="M13,23l.75,3H15v2a2,2,0,0,0,4,0V26h3.25L23,23Z"/>
    <path class="cls-10" d="M44.654,17.7a4.305,4.305,0,0,0-.824-.7l-.17-.3C39.92,18.76,33,20.08,33,23c0,0,.509,0,1.313-.035C35.7,20.736,41.385,19.5,44.654,17.7Z" style="fill: rgb(212, 153, 161);"/>
    <path class="cls-10" d="M44.66,17.7l-.006,0,.02.022Z"/>
    <path class="cls-10" d="M41.441,8.869A3.4,3.4,0,0,1,41.5,9.5a1.314,1.314,0,0,1-.38.89C39.11,12.79,29.5,14.34,29.5,21.5a4.352,4.352,0,0,1-.5-.033V22s0,1,2,1c0-7.16,9.61-8.71,11.62-11.11A1.314,1.314,0,0,0,43,11C43,9.46,42.21,8.977,41.441,8.869Z" style="fill: rgb(212, 153, 161);"/>
    <path class="cls-3" d="M44.478,12.286a1.614,1.614,0,0,1,.022.214c0,1.08-.95,1.94-2.34,2.7C38.42,17.26,31.5,18.58,31.5,21h-.332c-.1.974-.168,1.467-.168,2h2c0-2.92,6.92-4.24,10.66-6.3C45.05,15.94,46,15.08,46,14A1.874,1.874,0,0,0,44.478,12.286Z" style="fill: rgb(43, 149, 224);"/>
    <path class="cls-2" d="M34,12s3.181-7.152,4.577-8.693L38,1H37c-1,0-5,9-5,9s-4,1-4,5c0,1.65.44,2.98.99,3A5.082,5.082,0,0,1,30.5,14.783,5.849,5.849,0,0,1,34,12Z" style="fill: rgb(47, 166, 251);"/>
    <path class="cls-11" d="M37.91,23.2,36.04,24.47A12.679,12.679,0,0,1,41,34.73l.9-3.663A12.639,12.639,0,0,0,37.91,23.2Z"/>
    <path class="cls-6" d="M36.04,24.47A10.165,10.165,0,0,0,30,22.46l.661,2.7A10.543,10.543,0,0,1,33.04,26.47,12.679,12.679,0,0,1,38,36.73l-2.255,9.225L36,47h2l3-12.27A12.679,12.679,0,0,0,36.04,24.47Z"/>
    <path class="cls-10" d="M23.5,18a2.5,2.5,0,0,1,0,5H19v2a2,2,0,0,1-4,0V23H4.5a2.5,2.5,0,0,1,0-5h.09A7.9,7.9,0,0,1,4,15c0-.35.02-.7.05-1.04.02-.11.04-.23.06-.34.03-.22.06-.45.1-.66.03-.14.07-.27.1-.4.05-.19.1-.39.16-.58.04-.13.09-.26.14-.4.07-.17.13-.35.2-.53.01-.01.01-.03.02-.05h.01a9.992,9.992,0,0,1,18.32,0h.01c.01.02.01.04.02.05.07.18.13.36.2.53.05.14.1.27.15.4.05.19.1.39.15.58.03.13.07.26.1.4.04.22.07.44.1.66.02.12.04.23.06.34.03.34.05.69.05,1.04a7.9,7.9,0,0,1-.59,3Z" style="fill: rgb(254, 195, 203);"/>
    <circle class="cls-7" cx="14" cy="4" r="3"/>
    <path class="cls-8" d="M23.36,11.46A2.79,2.79,0,0,1,21,13a3,3,0,0,1-3-3v1a2.006,2.006,0,0,1-2,2,2.015,2.015,0,0,1-2-2v1a2.006,2.006,0,0,1-2,2,2.015,2.015,0,0,1-2-2V10a3,3,0,0,1-3,3,2.79,2.79,0,0,1-2.36-1.54A4.889,4.889,0,0,1,4,9c0-2.76,3.13-5,7-5a3,3,0,0,0,6,0c3.87,0,7,2.24,7,5A4.889,4.889,0,0,1,23.36,11.46Z"/>
    <path class="cls-9" d="M38.9,22.522A42.388,42.388,0,0,1,33.23,23a10.465,10.465,0,0,1,2.81,1.473Z"/>
    <path class="cls-9" d="M43,21.462v-.038l-.03.012Z"/>
    <path class="cls-12" d="M14,5a2.986,2.986,0,0,1-2.817-2,3,3,0,1,0,5.634,0A2.986,2.986,0,0,1,14,5Z"/>
    <path class="cls-5" d="M23.36,8.46A2.79,2.79,0,0,1,21,10a3,3,0,0,1-3-3V8a2.006,2.006,0,0,1-2,2,2.015,2.015,0,0,1-2-2V9a2.006,2.006,0,0,1-2,2,2.015,2.015,0,0,1-2-2V7a3,3,0,0,1-3,3A2.79,2.79,0,0,1,4.64,8.46a4.489,4.489,0,0,1-.367-.833A3.694,3.694,0,0,0,4,9a4.889,4.889,0,0,0,.64,2.46A2.79,2.79,0,0,0,7,13a3,3,0,0,0,3-3v2a2.015,2.015,0,0,0,2,2,2.006,2.006,0,0,0,2-2V11a2.015,2.015,0,0,0,2,2,2.006,2.006,0,0,0,2-2V10a3,3,0,0,0,3,3,2.79,2.79,0,0,0,2.36-1.54A4.889,4.889,0,0,0,24,9a3.694,3.694,0,0,0-.273-1.373A4.489,4.489,0,0,1,23.36,8.46Z"/>
    <path class="cls-1" d="M4.5,20h19a2.5,2.5,0,0,1,2.289,1.5A2.5,2.5,0,0,0,23.5,18H4.5a2.5,2.5,0,0,0-2.289,3.5A2.5,2.5,0,0,1,4.5,20Z" style="fill: rgb(254, 195, 203);"/>
    <path class="cls-1" d="M17,25a2.006,2.006,0,0,1-2-2v2a2,2,0,0,0,4,0V23A2.006,2.006,0,0,1,17,25Z" style="fill: rgb(255, 227, 231);"/>
    <path class="cls-13" d="M7,16a3,3,0,0,0,3-3v2a2.015,2.015,0,0,0,2,2,2.006,2.006,0,0,0,2-2V14a2.015,2.015,0,0,0,2,2,2.006,2.006,0,0,0,2-2V13a3,3,0,0,0,3,3,2.79,2.79,0,0,0,2.36-1.54,4.539,4.539,0,0,0,.478-1.182c-.015-.106-.029-.212-.048-.318-.03-.14-.07-.27-.1-.4-.05-.19-.1-.39-.15-.58-.05-.13-.1-.26-.15-.4-.014-.034-.027-.071-.04-.106A2.785,2.785,0,0,1,21,13a3,3,0,0,1-3-3v1a2.006,2.006,0,0,1-2,2,2.015,2.015,0,0,1-2-2v1a2.006,2.006,0,0,1-2,2,2.015,2.015,0,0,1-2-2V10a3,3,0,0,1-3,3,2.785,2.785,0,0,1-2.35-1.526c-.013.035-.026.072-.04.106-.05.14-.1.27-.14.4-.06.19-.11.39-.16.58-.03.13-.07.26-.1.4-.019.1-.032.211-.048.318A4.574,4.574,0,0,0,4.64,14.46,2.79,2.79,0,0,0,7,16Z" style="fill: rgb(212, 153, 161);"/>
    <ellipse class="cls-2" cx="8.746" cy="6.5" rx="0.413" ry="0.574" style="fill: rgb(249, 159, 13);"/>
    <ellipse class="cls-14" cx="19.746" cy="9.5" rx="0.413" ry="0.574" style="fill: rgba(15, 124, 19, 0.86);"/>
    <ellipse class="cls-2" cx="6.746" cy="7.5" rx="0.413" ry="0.574" transform="translate(-3.327 6.963) rotate(-44.98)" style="fill: rgb(15, 124, 19);"/>
    <ellipse class="cls-2" cx="15.746" cy="7.5" rx="0.413" ry="0.574" transform="translate(-0.694 13.325) rotate(-44.98)" style="fill: rgb(15, 79, 124);"/>
    <ellipse class="cls-15" cx="11.746" cy="8.5" rx="0.413" ry="0.574" transform="translate(-2.571 10.79) rotate(-44.98)" style="fill: rgb(212, 153, 161);"/>
    <ellipse class="cls-2" cx="21.746" cy="8.5" rx="0.413" ry="0.574" style="fill: rgb(15, 79, 124);"/>
    <ellipse class="cls-13" cx="17.746" cy="7.5" rx="0.413" ry="0.574" style="fill: rgb(249, 159, 13);"/>
    <ellipse class="cls-13" cx="8.746" cy="8.5" rx="0.413" ry="0.574" style="fill: rgb(212, 79, 79);"/>
    <ellipse class="cls-17" cx="20.746" cy="7.5" rx="0.413" ry="0.574" transform="translate(0.77 16.859) rotate(-44.98)" style="fill: rgb(212, 79, 79);"/>
    <line class="cls-18" x1="9.5" x2="5" y1="41.002" y2="23" style="stroke-width: 1px;"/>
    <path class="cls-18" d="M21.75,28,17.727,44.091A3.839,3.839,0,0,1,14,47h0a3.839,3.839,0,0,1-3.725-2.909L10,43" style="stroke-width: 1px;"/>
    <line class="cls-18" x1="23" x2="22.25" y1="23" y2="25.999" style="stroke-width: 1px;"/>
    <circle class="cls-18" cx="14" cy="4" r="3" style="stroke-width: 1px;"/>
    <path class="cls-18" d="M22,5.5A4.392,4.392,0,0,1,24,9c0,2.211-1.342,4-3,4a3,3,0,0,1-3-3v1a2,2,0,0,1-2,2h0a2,2,0,0,1-2-2h0v1a2,2,0,0,1-2,2h0a2,2,0,0,1-2-2V10a3,3,0,0,1-3,3c-1.658,0-3-1.789-3-4,0-2.764,3.131-5,7-5" style="stroke-width: 1px;"/>
    <path class="cls-18" d="M17,4a9.38,9.38,0,0,1,3,.479" style="stroke-width: 1px;"/>
    <path class="cls-18" d="M 4.835 11.256 C 4.284 12.498 4 13.838 4.002 15.192 L 4.002 15.192 C 4.002 16.204 4.201 17.207 4.59 18.144 L 4.502 18.144 C 2.576 18.144 1.372 20.194 2.335 21.834 C 2.782 22.595 3.608 23.064 4.502 23.064 L 15.013 23.064 L 15.013 25.032 C 15.013 26.547 16.681 27.494 18.016 26.736 C 18.635 26.385 19.017 25.735 19.017 25.032 L 19.017 23.064 L 23.521 23.064 C 25.447 23.064 26.651 21.014 25.688 19.374 C 25.241 18.613 24.415 18.144 23.521 18.144 L 23.434 18.144 C 23.822 17.207 24.021 16.204 24.021 15.192 L 24.021 15.192 C 24.024 13.838 23.741 12.498 23.19 11.256" style="stroke-width: 1px;"/>
    <line class="cls-18" x1="9" x2="15" y1="23" y2="47" style="stroke-width: 1px;"/>
    <line class="cls-18" x1="13" x2="18" y1="23" y2="43" style="stroke-width: 1px;"/>
    <line class="cls-18" x1="23.248" x2="19.248" y1="18.089" y2="18.089" style="stroke-width: 1px;"/>
    <path class="cls-18" d="M31,23c-2,0-2-1-2-1V21s-1-6,3-7,6-2,6-4" style="stroke-width: 1px;"/>
    <path class="cls-18" d="M35,11c0-2,2.236-2,5-2" style="stroke-width: 1px;"/>
    <path class="cls-18" d="M33,23c0-4,13-5,13-9,0-2-3.25-2-3.25-2" style="stroke-width: 1px;"/>
    <path class="cls-18" d="M43.833,17s3.25,2,0,4a6.839,6.839,0,0,1-.833.432" style="stroke-width: 1px;"/>
    <path class="cls-18" d="M33,23H31c0-8,12-9,12-12s-3-2-3-2L38,1H37c-1,0-5,9-5,9s-4,1-4,5c0,1.658.447,3,1,3" style="stroke-width: 1px;"/>
    <path class="cls-18" d="M40.2,38,44,22.459l-.841-.86a1.966,1.966,0,0,0-2.523-.255L36,24.5" style="stroke-width: 1px;"/>
    <polyline class="cls-18" points="31.6 29.003 36 47 38 47 39.712 39.999" style="stroke-width: 1px;"/>
    <path class="cls-18" d="M 41.005 34.965 C 41.005 28.265 36.085 22.844 30.005 22.844 L 31.116 27.33" style="stroke-width: 1px;"/>
  </g>
</svg>