<?xml version="1.0" encoding="utf-8"?>
<svg viewBox="0 0 48 48" xmlns="http://www.w3.org/2000/svg">
  <defs>
    <style>.cls-1{fill:#f4adcc;}.cls-2{fill:#a9dffa;}.cls-3{fill:#88d6f9;}.cls-4{fill:#f4a979;}.cls-5{fill:#f6d1b0;}.cls-6{fill:#f8bb8e;}.cls-7{fill:#f4624c;}.cls-8{fill:#f9e6d8;}.cls-9{fill:#e38f60;}.cls-10{fill:#ef90ba;}.cls-11{fill:#b4784f;}.cls-12{fill:#d44f4f;}.cls-13{fill:#eb76aa;}.cls-14{fill:#45c24e;}.cls-15{fill:#8bd845;}.cls-16{fill:#f6fafd;}.cls-17{fill:#f0f8fe;}.cls-18{fill:none;stroke:#24283b;stroke-linejoin:round;stroke-width:2px;}</style>
  </defs>
  <g data-name="26-ice cream" id="_26-ice_cream">
    <path class="cls-9" d="M43,21.462v-.038l-.03.012Z"/>
    <path class="cls-10" d="M44.66,17.7l-.006,0,.02.022Z"/>
    <path class="cls-9" d="M43,21.462v-.038l-.03.012Z"/>
    <line class="cls-18" x1="9.5" x2="5" y1="41.002" y2="23" style="stroke-width: 1px; stroke: #0f4f7c;"/>
    <path class="cls-18" d="M21.75,28,17.727,44.091A3.839,3.839,0,0,1,14,47h0a3.839,3.839,0,0,1-3.725-2.909L10,43" style="stroke-width: 1px; stroke: #0f4f7c;"/>
    <line class="cls-18" x1="23" x2="22.25" y1="23" y2="25.999" style="stroke-width: 1px; stroke: #0f4f7c;"/>
    <circle class="cls-18" cx="14" cy="4" r="3" style="stroke-width: 1px; stroke: #0f4f7c;"/>
    <path class="cls-18" d="M22,5.5A4.392,4.392,0,0,1,24,9c0,2.211-1.342,4-3,4a3,3,0,0,1-3-3v1a2,2,0,0,1-2,2h0a2,2,0,0,1-2-2h0v1a2,2,0,0,1-2,2h0a2,2,0,0,1-2-2V10a3,3,0,0,1-3,3c-1.658,0-3-1.789-3-4,0-2.764,3.131-5,7-5" style="stroke-width: 1px; stroke: #0f4f7c;"/>
    <path class="cls-18" d="M17,4a9.38,9.38,0,0,1,3,.479" style="stroke-width: 1px; stroke: #0f4f7c;"/>
    <path class="cls-18" d="M 4.835 11.256 C 4.284 12.498 4 13.838 4.002 15.192 L 4.002 15.192 C 4.002 16.204 4.201 17.207 4.59 18.144 L 4.502 18.144 C 2.576 18.144 1.372 20.194 2.335 21.834 C 2.782 22.595 3.608 23.064 4.502 23.064 L 15.013 23.064 L 15.013 25.032 C 15.013 26.547 16.681 27.494 18.016 26.736 C 18.635 26.385 19.017 25.735 19.017 25.032 L 19.017 23.064 L 23.521 23.064 C 25.447 23.064 26.651 21.014 25.688 19.374 C 25.241 18.613 24.415 18.144 23.521 18.144 L 23.434 18.144 C 23.822 17.207 24.021 16.204 24.021 15.192 L 24.021 15.192 C 24.024 13.838 23.741 12.498 23.19 11.256" style="stroke-width: 1px; stroke: #0f4f7c;"/>
    <line class="cls-18" x1="9" x2="15" y1="23" y2="47" style="stroke-width: 1px; stroke: #0f4f7c;"/>
    <line class="cls-18" x1="13" x2="18" y1="23" y2="43" style="stroke-width: 1px; stroke: #0f4f7c;"/>
    <line class="cls-18" x1="23.248" x2="19.248" y1="18.089" y2="18.089" style="stroke-width: 1px; stroke: #0f4f7c;"/>
    <path class="cls-18" d="M31,23c-2,0-2-1-2-1V21s-1-6,3-7,6-2,6-4" style="stroke-width: 1px; stroke: #0f4f7c;"/>
    <path class="cls-18" d="M35,11c0-2,2.236-2,5-2" style="stroke-width: 1px; stroke: #0f4f7c;"/>
    <path class="cls-18" d="M33,23c0-4,13-5,13-9,0-2-3.25-2-3.25-2" style="stroke-width: 1px; stroke: #0f4f7c;"/>
    <path class="cls-18" d="M 43.753 16.902 C 43.753 16.902 47.183 18.946 43.753 20.99 C 43.471 21.157 43.177 21.304 42.874 21.432" style="stroke-width: 1px; stroke: #0f4f7c;"/>
    <path class="cls-18" d="M33,23H31c0-8,12-9,12-12s-3-2-3-2L38,1H37c-1,0-5,9-5,9s-4,1-4,5c0,1.658.447,3,1,3" style="stroke-width: 1px; stroke: #0f4f7c;"/>
    <path class="cls-18" d="M40.2,38,44,22.459l-.841-.86a1.966,1.966,0,0,0-2.523-.255L36,24.5" style="stroke-width: 1px; stroke: #0f4f7c;"/>
    <polyline class="cls-18" points="31.6 29.003 36 47 38 47 39.712 39.999" style="stroke-width: 1px; stroke: #0f4f7c;"/>
    <path class="cls-18" d="M 41.005 34.965 C 41.005 28.265 36.085 22.844 30.005 22.844 L 31.116 27.33" style="stroke-width: 1px; stroke: #0f4f7c;"/>
  </g>
</svg>