<?xml version="1.0" standalone="no"?>
<!DOCTYPE svg PUBLIC "-//W3C//DTD SVG 20010904//EN"
 "http://www.w3.org/TR/2001/REC-SVG-20010904/DTD/svg10.dtd">
<svg version="1.0" xmlns="http://www.w3.org/2000/svg"
 width="700.000000pt" height="700.000000pt" viewBox="0 0 700.000000 700.000000"
 preserveAspectRatio="xMidYMid meet">
<metadata>
Created by potrace 1.11, written by Peter Selinger 2001-2013
</metadata>
<g transform="translate(0.000000,700.000000) scale(0.100000,-0.100000)"
fill="#000000" stroke="none">
<path d="M1932 6915 c-186 -43 -339 -190 -383 -371 -7 -27 -13 -50 -14 -52 -2
-2 -29 -5 -61 -8 -33 -2 -81 -9 -109 -15 -27 -5 -66 -12 -85 -15 -60 -9 -212
-63 -295 -105 -238 -120 -395 -296 -454 -507 -37 -134 -19 -323 46 -477 25
-60 25 -60 8 -115 -51 -158 -75 -323 -71 -485 3 -119 24 -261 46 -320 8 -22 5
-25 -43 -41 -131 -43 -230 -143 -277 -278 -31 -91 -23 -220 20 -309 68 -143
208 -240 360 -251 l54 -4 83 -328 c45 -181 85 -338 87 -349 2 -11 25 -103 51
-205 54 -214 65 -259 70 -280 2 -8 11 -44 20 -80 9 -36 18 -72 20 -80 2 -8 11
-44 20 -80 9 -36 18 -72 20 -80 2 -8 29 -116 60 -240 31 -124 58 -232 60 -240
2 -8 36 -145 76 -304 l72 -288 36 6 c20 3 52 10 72 16 l35 10 -314 1256 c-172
690 -311 1258 -308 1262 9 8 417 9 422 0 6 -9 834 -3319 834 -3332 0 -5 -35
-6 -77 -3 -125 8 -234 58 -319 145 -74 75 -103 137 -154 333 l-12 46 -61 -15
c-34 -8 -65 -18 -70 -22 -9 -8 26 -150 58 -235 33 -89 68 -140 150 -222 267
-263 698 -233 937 67 81 103 89 128 402 1384 207 830 294 1191 286 1196 -25
16 -123 32 -129 22 -3 -6 -111 -432 -240 -947 -128 -514 -235 -934 -237 -933
-2 2 -144 569 -317 1260 -201 805 -310 1258 -303 1261 6 2 34 3 61 2 l50 -1 1
-124 c1 -147 7 -187 40 -252 64 -125 193 -199 341 -194 122 4 225 61 287 159
50 79 60 118 61 263 1 72 4 135 7 140 5 7 394 11 405 5 0 -1 -18 -75 -41 -166
l-42 -166 55 -15 c31 -9 63 -17 71 -20 13 -3 24 32 59 174 24 97 47 181 52
186 5 5 31 11 57 12 143 9 287 106 353 239 32 65 37 83 46 160 12 109 -41 247
-130 335 -48 48 -156 110 -190 110 -23 0 -28 13 -16 51 6 19 12 48 15 64 3 17
7 37 10 44 8 25 18 161 18 241 -1 143 -25 288 -69 428 l-23 73 23 52 c55 120
79 307 56 429 -33 168 -125 319 -263 431 l-46 38 -42 -61 -42 -62 24 -16 c44
-31 126 -122 156 -174 53 -92 75 -173 75 -273 0 -199 -89 -379 -229 -461 -44
-26 -58 -29 -139 -29 -78 0 -97 4 -147 28 -117 57 -196 170 -206 292 -4 56 -9
69 -33 89 -29 25 -51 25 -94 -1 -17 -10 -20 -26 -25 -140 -5 -108 -9 -135 -27
-164 -65 -105 -180 -138 -290 -84 -69 35 -103 86 -118 175 -9 57 -14 66 -41
78 -35 16 -48 15 -75 -7 -22 -18 -24 -29 -30 -143 -7 -123 -13 -148 -54 -199
-75 -93 -228 -101 -314 -17 -62 61 -65 74 -71 290 -6 219 -9 232 -71 230 -47
-1 -70 -29 -75 -93 -15 -193 -177 -343 -368 -340 -254 3 -435 387 -324 686 19
52 95 160 145 206 155 145 386 241 633 265 l66 6 13 -54 c56 -221 265 -381
495 -379 230 2 434 159 490 378 l12 48 45 0 c72 -1 177 -18 259 -44 47 -15 50
-14 50 8 0 11 4 22 9 25 4 3 11 18 14 33 3 16 8 35 12 44 5 13 -8 20 -72 37
-88 24 -172 39 -252 46 -30 3 -57 9 -61 13 -4 4 -13 31 -19 58 -61 248 -343
418 -599 360z m254 -165 c174 -79 259 -269 200 -447 -33 -99 -102 -174 -203
-220 -77 -36 -189 -37 -276 -3 -67 25 -162 112 -191 173 -95 204 3 439 212
508 75 25 188 20 258 -11z m640 -1658 c88 -44 164 -62 253 -57 42 2 90 9 106
16 77 31 97 42 140 74 25 19 47 35 49 35 4 0 24 -75 31 -122 3 -18 9 -57 14
-87 12 -79 10 -268 -4 -342 -14 -75 -35 -150 -46 -164 -5 -7 -107 -10 -283
-10 -257 0 -276 -1 -277 -17 -1 -10 -2 -42 -2 -70 l-1 -53 334 -6 c199 -4 349
-11 370 -18 168 -52 256 -234 188 -383 -33 -72 -66 -108 -130 -143 l-53 -30
-388 -5 -389 -5 -19 -24 c-17 -21 -19 -41 -19 -190 0 -187 -6 -220 -51 -274
-79 -96 -217 -107 -315 -24 -60 51 -68 82 -70 286 -2 172 -3 185 -23 205 -22
21 -22 21 -844 26 l-822 5 -50 27 c-101 53 -158 145 -158 253 0 154 130 285
282 285 80 0 110 52 76 133 -22 53 -52 175 -60 242 -16 138 0 342 36 468 l10
39 32 -27 c18 -14 65 -42 106 -62 62 -29 88 -36 152 -39 125 -5 270 45 356
124 25 23 43 22 43 -4 0 -25 49 -113 87 -155 58 -64 172 -113 263 -113 128 0
271 88 324 198 l16 34 55 -33 c83 -50 212 -67 291 -39 92 33 192 111 209 164
6 20 11 17 64 -33 31 -30 84 -68 117 -85z m-976 -1562 c5 -19 165 -658 355
-1418 l346 -1384 -26 -96 c-34 -127 -68 -194 -135 -262 -48 -49 -147 -118
-154 -108 -3 3 -86 329 -90 353 -1 5 -5 19 -9 30 -3 11 -8 31 -11 45 -3 14
-15 63 -27 110 -11 47 -22 92 -24 100 -2 8 -58 233 -125 500 -67 267 -123 490
-124 495 -1 6 -5 19 -9 30 -3 11 -8 31 -11 45 -3 14 -15 63 -27 110 -11 47
-22 92 -24 100 -2 8 -58 233 -125 500 -67 267 -123 490 -124 495 -1 6 -5 19
-9 30 -3 11 -8 31 -11 45 -3 14 -14 61 -26 105 -11 44 -22 91 -25 105 -3 14
-9 40 -15 59 -5 19 -8 37 -6 40 2 3 99 6 215 6 l212 0 9 -35z"/>
<path d="M5340 6906 c-66 -36 -137 -134 -269 -371 -66 -118 -267 -520 -353
-705 -19 -41 -49 -106 -66 -143 -18 -37 -32 -72 -32 -77 0 -6 -5 -10 -10 -10
-12 0 -86 -33 -155 -68 -171 -88 -315 -241 -386 -410 -42 -102 -59 -207 -55
-352 6 -191 48 -353 108 -413 22 -22 23 -30 24 -177 1 -251 11 -413 27 -451
19 -44 46 -72 101 -104 l44 -26 73 -297 c40 -163 74 -299 76 -301 1 -2 34 4
73 14 56 14 70 21 66 34 -23 75 -126 508 -122 516 5 15 146 8 226 -11 436
-105 808 -422 1021 -869 43 -91 103 -249 114 -300 2 -11 13 -63 24 -115 48
-232 45 -303 -22 -573 -37 -147 -51 -220 -43 -222 64 -22 128 -32 131 -22 4
11 38 148 210 852 26 105 76 309 112 455 35 146 66 272 68 280 7 32 78 322
116 474 60 239 60 225 0 289 l-51 54 62 41 c171 112 247 253 213 398 -16 69
-52 128 -120 198 l-56 58 48 31 c75 50 175 156 208 222 26 53 30 70 30 150 0
75 -4 97 -24 135 -62 118 -158 173 -392 224 -24 5 -26 9 -20 38 4 18 3 67 -1
110 -21 218 -180 344 -400 318 -49 -6 -53 -3 -64 45 -3 13 -33 134 -39 158 -3
9 -7 25 -9 35 -2 9 -30 118 -61 242 -31 124 -58 232 -60 240 -2 8 -13 53 -25
100 -12 47 -23 92 -25 100 -26 123 -50 193 -73 211 -37 29 -186 26 -242 -5z
m160 -183 c8 -32 15 -62 16 -68 1 -5 37 -147 79 -315 42 -168 78 -312 80 -320
2 -8 17 -69 34 -135 16 -66 29 -120 28 -121 -1 -1 -65 -5 -142 -8 -171 -7
-211 -12 -300 -38 -127 -36 -199 -94 -238 -190 -13 -30 -22 -72 -22 -93 l0
-39 60 -1 c77 -1 85 2 85 32 0 39 39 99 79 122 81 45 183 59 461 66 85 2 166
7 180 13 36 13 162 7 196 -11 60 -31 92 -92 99 -187 8 -128 -69 -187 -584
-445 -459 -230 -633 -345 -832 -547 -125 -127 -228 -294 -278 -449 -23 -70
-23 -69 -41 -176 l-12 -73 -42 0 c-38 0 -81 19 -97 43 -4 5 -7 50 -8 101 0 50
-3 102 -6 116 -8 36 -8 277 -1 330 32 224 90 356 197 454 70 62 124 86 314
136 342 91 542 182 670 305 83 80 124 163 138 278 5 40 8 39 -78 39 -61 0 -61
0 -73 -61 -8 -39 -25 -76 -50 -109 -42 -57 -152 -136 -252 -180 -81 -36 -341
-122 -415 -137 -192 -40 -335 -121 -427 -242 -56 -73 -134 -234 -120 -247 3
-3 1 -6 -5 -6 -25 0 -44 239 -28 358 29 230 197 427 450 526 93 37 112 50 128
89 38 89 194 418 295 622 124 251 248 470 318 565 42 57 46 60 87 60 l44 0 13
-57z m910 -1570 c194 -47 266 -151 200 -289 -22 -45 -100 -123 -170 -171 -109
-74 -337 -181 -608 -284 -591 -225 -801 -330 -949 -472 -66 -63 -102 -116
-123 -180 l-12 -38 -71 3 -72 3 -1 35 c-1 83 46 236 106 347 109 197 319 390
620 568 36 21 205 109 375 195 311 157 416 216 489 276 37 29 45 32 95 28 31
-3 85 -12 121 -21z m-24 -711 c80 -58 143 -153 144 -215 0 -70 -65 -149 -184
-222 l-70 -42 -65 23 c-37 13 -89 24 -117 24 -59 0 -170 -31 -205 -58 -13 -10
-123 -86 -244 -167 -121 -82 -265 -180 -319 -217 -55 -37 -103 -68 -108 -68
-4 0 -44 20 -87 44 -44 24 -116 59 -161 77 -68 28 -80 36 -80 56 0 65 87 165
214 248 134 87 288 156 726 326 113 44 219 86 235 93 17 8 64 28 105 45 41 17
95 42 120 55 25 14 48 25 51 25 3 1 24 -12 45 -27z m-212 -596 c17 -7 61 -42
97 -77 70 -69 67 -60 45 -150 -2 -8 -18 -71 -35 -140 -16 -68 -68 -279 -115
-469 -46 -190 -102 -417 -123 -504 -34 -144 -39 -156 -47 -125 -97 372 -277
679 -547 932 l-100 94 108 73 c59 41 200 137 313 214 113 77 227 148 254 157
53 18 98 17 150 -5z"/>
<path d="M4603 2772 c-61 -15 -63 -16 -58 -44 6 -31 90 -380 151 -623 20 -77
38 -151 40 -165 3 -14 10 -43 16 -65 5 -22 12 -47 13 -55 2 -8 18 -71 35 -140
17 -69 33 -135 36 -147 2 -12 26 -111 53 -220 27 -109 59 -238 71 -288 12 -49
60 -245 107 -435 46 -190 87 -354 89 -365 3 -11 6 -24 8 -30 2 -5 6 -27 10
-47 14 -68 28 -73 205 -75 184 -2 216 5 230 50 8 24 119 470 156 627 2 8 24
100 49 203 25 103 46 190 46 192 0 5 -59 23 -102 30 l-36 7 -15 -54 c-15 -54
-84 -336 -93 -379 -2 -13 -33 -136 -67 -274 l-63 -250 -89 0 -89 0 -52 210
c-29 116 -53 212 -53 215 -1 3 -4 14 -6 25 -3 11 -39 159 -81 330 -41 171 -87
357 -101 415 -27 113 -27 113 -36 150 -7 27 -87 355 -196 805 -89 365 -103
415 -110 414 -3 -1 -34 -9 -68 -17z"/>
</g>
</svg>
